<svg width="260" height="97" viewBox="0 0 260 97" fill="none" xmlns="http://www.w3.org/2000/svg">
<g filter="url(#filter0_df_23:9)">
<path d="M5.04213 21.743C18.1164 15.2058 32.0209 9.73451 46.1041 5.89365C49.1331 5.06756 49.7108 4.01747 53.5167 4.38187C60.7406 5.07351 67.3614 7.67924 74.0965 10.2339C85.1089 14.4111 93.8219 22.5616 101.016 31.7402C106.526 38.77 109.83 47.1563 114.768 54.5633C129.291 76.3475 158.08 88.4565 183.676 88.4565C191.3 88.4565 198.924 88.4565 206.548 88.4565C209.755 88.4565 212.831 88.3315 215.911 87.3836C218.682 86.5311 221.901 84.274 224.689 84.0674C227.284 83.8752 231.385 83.4296 233.76 82.3118C235.813 81.3458 238.249 79.6784 240.49 79.6784C241.856 79.6784 243.329 79.8232 244.684 79.6296C246.124 79.4239 246.185 77.9759 247.513 77.9228C249.93 77.8261 253.22 77.499 255.218 76.1671" stroke="#1A0622" stroke-width="0.5" stroke-linecap="round"/>
</g>
<defs>
<filter id="filter0_df_23:9" x="0.792068" y="0.0575027" width="258.676" height="96.649" filterUnits="userSpaceOnUse" color-interpolation-filters="sRGB">
<feFlood flood-opacity="0" result="BackgroundImageFix"/>
<feColorMatrix in="SourceAlpha" type="matrix" values="0 0 0 0 0 0 0 0 0 0 0 0 0 0 0 0 0 0 127 0" result="hardAlpha"/>
<feOffset dy="4"/>
<feGaussianBlur stdDeviation="2"/>
<feComposite in2="hardAlpha" operator="out"/>
<feColorMatrix type="matrix" values="0 0 0 0 0 0 0 0 0 0 0 0 0 0 0 0 0 0 0.25 0"/>
<feBlend mode="normal" in2="BackgroundImageFix" result="effect1_dropShadow_23:9"/>
<feBlend mode="normal" in="SourceGraphic" in2="effect1_dropShadow_23:9" result="shape"/>
<feGaussianBlur stdDeviation="2" result="effect2_foregroundBlur_23:9"/>
</filter>
</defs>
</svg>
