<svg width="31" height="31" viewBox="0 0 31 31" fill="none" xmlns="http://www.w3.org/2000/svg">
<path d="M15.247 5.99256L11.5078 12.4688C11.4822 12.5132 11.4687 12.5635 11.4687 12.6148C11.4687 12.666 11.4822 12.7164 11.5078 12.7608L15.247 19.2373C15.2726 19.2818 15.3095 19.3188 15.354 19.3445C15.3984 19.3702 15.4488 19.3837 15.5002 19.3837C15.5515 19.3837 15.6019 19.3702 15.6464 19.3445C15.6908 19.3188 15.7277 19.2818 15.7533 19.2373L19.4922 12.7611C19.5178 12.7166 19.5312 12.6662 19.5312 12.6149C19.5312 12.5636 19.5178 12.5132 19.4922 12.4688L15.753 5.99256C15.7273 5.94813 15.6905 5.91124 15.6461 5.88559C15.6017 5.85994 15.5513 5.84644 15.5 5.84644C15.4487 5.84644 15.3983 5.85994 15.3539 5.88559C15.3095 5.91124 15.2727 5.94813 15.247 5.99256Z" fill="#E93325"/>
<path d="M7.44527 13.2432H2.04383C1.99256 13.2432 1.9422 13.2566 1.8978 13.2823C1.8534 13.3079 1.81652 13.3448 1.79089 13.3891C1.76525 13.4335 1.75175 13.4839 1.75175 13.5352C1.75174 13.5864 1.76524 13.6368 1.79087 13.6812L4.49159 18.3591C4.51718 18.4035 4.55404 18.4404 4.59846 18.4661C4.64287 18.4917 4.69327 18.5052 4.74455 18.5051H10.1463C10.1976 18.5051 10.2479 18.4916 10.2923 18.466C10.3367 18.4404 10.3736 18.4035 10.3992 18.3591C10.4249 18.3147 10.4384 18.2644 10.4384 18.2131C10.4384 18.1618 10.4249 18.1115 10.3993 18.0671L7.69854 13.3892C7.67285 13.3447 7.63593 13.3079 7.59147 13.2822C7.54701 13.2566 7.49659 13.2431 7.44527 13.2432Z" fill="#E93325"/>
<path d="M6.35159 20.8385L8.75843 25.0074C8.78414 25.0517 8.82103 25.0885 8.86541 25.1141C8.9098 25.1398 8.96014 25.1533 9.01139 25.1534H13.826C13.8773 25.1534 13.9276 25.1399 13.972 25.1143C14.0164 25.0886 14.0533 25.0518 14.0789 25.0074C14.1046 24.963 14.1181 24.9126 14.1181 24.8614C14.1181 24.8101 14.1046 24.7597 14.079 24.7153L11.6715 20.5462C11.6459 20.5018 11.609 20.4649 11.5646 20.4393C11.5202 20.4136 11.4698 20.4001 11.4185 20.4001H6.60455C6.55324 20.4001 6.50282 20.4136 6.45838 20.4392C6.41393 20.4649 6.37703 20.5018 6.35138 20.5462C6.32573 20.5906 6.31225 20.6411 6.31229 20.6924C6.31232 20.7437 6.32588 20.7941 6.35159 20.8385Z" fill="#0B619A"/>
<path d="M23.3015 13.3892L20.6007 18.0671C20.5751 18.1115 20.5616 18.1618 20.5616 18.2131C20.5616 18.2644 20.5751 18.3147 20.6008 18.3591C20.6264 18.4035 20.6633 18.4404 20.7077 18.466C20.7521 18.4916 20.8024 18.5051 20.8537 18.5051H26.257C26.3083 18.5052 26.3587 18.4917 26.4031 18.4661C26.4475 18.4404 26.4844 18.4035 26.51 18.3591L29.2107 13.6812C29.2363 13.6368 29.2498 13.5864 29.2498 13.5352C29.2498 13.4839 29.2363 13.4335 29.2107 13.3891C29.185 13.3448 29.1481 13.3079 29.1037 13.2823C29.0593 13.2566 29.009 13.2432 28.9577 13.2432H23.5547C23.5034 13.2431 23.453 13.2566 23.4085 13.2822C23.3641 13.3079 23.3271 13.3447 23.3015 13.3892Z" fill="#E93325"/>
<path d="M22.2416 25.0074L24.6484 20.8385C24.6741 20.7942 24.6876 20.7439 24.6877 20.6928C24.6878 20.6416 24.6745 20.5913 24.649 20.5469C24.6235 20.5025 24.5869 20.4656 24.5426 20.4398C24.4984 20.4141 24.4482 20.4004 24.397 20.4001H19.5815C19.5302 20.4001 19.4798 20.4136 19.4354 20.4393C19.391 20.4649 19.3541 20.5018 19.3285 20.5462L16.9214 24.7153C16.8957 24.7597 16.8822 24.81 16.8822 24.8613C16.8822 24.9125 16.8957 24.9629 16.9213 25.0073C16.9469 25.0516 16.9837 25.0885 17.0281 25.1142C17.0724 25.1398 17.1228 25.1533 17.174 25.1534H21.9883C22.0396 25.1533 22.0899 25.1398 22.1343 25.1141C22.1787 25.0885 22.2156 25.0517 22.2413 25.0074" fill="#0B619A"/>
</svg>
