<svg width="168" height="60" viewBox="0 0 168 60" fill="none" xmlns="http://www.w3.org/2000/svg">
<path d="M8.19922 39.7695L12.0664 26.9375H15.9805L10.0391 44H6.37109L0.453125 26.9375H4.35547L8.19922 39.7695ZM21.3359 44H17.8203V26.9375H21.3359V44ZM30.9219 37.7539H28.1211V44H24.6055V26.9375H30.9453C32.9609 26.9375 34.5156 27.3867 35.6094 28.2852C36.7031 29.1836 37.25 30.4531 37.25 32.0938C37.25 33.2578 36.9961 34.2305 36.4883 35.0117C35.9883 35.7852 35.2266 36.4023 34.2031 36.8633L37.8945 43.8359V44H34.1211L30.9219 37.7539ZM28.1211 34.9062H30.957C31.8398 34.9062 32.5234 34.6836 33.0078 34.2383C33.4922 33.7852 33.7344 33.1641 33.7344 32.375C33.7344 31.5703 33.5039 30.9375 33.043 30.4766C32.5898 30.0156 31.8906 29.7852 30.9453 29.7852H28.1211V34.9062ZM49.5664 40.4844H43.4023L42.2305 44H38.4922L44.8438 26.9375H48.1016L54.4883 44H50.75L49.5664 40.4844ZM44.3516 37.6367H48.6172L46.4727 31.25L44.3516 37.6367ZM59.5977 41.1758H67.0625V44H56.082V26.9375H59.5977V41.1758ZM72.8281 44H69.3125V26.9375H72.8281V44ZM79.8242 41.1758H88.4258V44H75.4297V41.9375L83.8672 29.7852H75.4414V26.9375H88.2383V28.9531L79.8242 41.1758ZM100.918 36.6055H94.168V41.1758H102.09V44H90.6523V26.9375H102.066V29.7852H94.168V33.8516H100.918V36.6055Z" fill="white"/>
<path d="M137.51 11.5986L130.273 24.1332C130.224 24.2192 130.198 24.3166 130.198 24.4158C130.198 24.515 130.224 24.6125 130.273 24.6984L137.51 37.2336C137.56 37.3197 137.631 37.3913 137.717 37.441C137.803 37.4908 137.901 37.5169 138 37.5169C138.1 37.5169 138.197 37.4908 138.283 37.441C138.369 37.3913 138.441 37.3197 138.49 37.2336L145.727 24.699C145.776 24.613 145.802 24.5154 145.802 24.4161C145.802 24.3168 145.776 24.2193 145.727 24.1332L138.49 11.5986C138.44 11.5126 138.369 11.4412 138.283 11.3916C138.197 11.3419 138.099 11.3158 138 11.3158C137.901 11.3158 137.803 11.3419 137.717 11.3916C137.631 11.4412 137.56 11.5126 137.51 11.5986V11.5986Z" fill="#E93325"/>
<path d="M122.41 25.632H111.956C111.857 25.632 111.759 25.6581 111.673 25.7077C111.587 25.7573 111.516 25.8286 111.466 25.9146C111.417 26.0005 111.391 26.098 111.391 26.1972C111.39 26.2964 111.417 26.3939 111.466 26.4798L116.693 35.5338C116.743 35.6198 116.814 35.6913 116.9 35.7409C116.986 35.7905 117.084 35.8166 117.183 35.8164H127.638C127.737 35.8164 127.835 35.7903 127.921 35.7407C128.007 35.6911 128.078 35.6198 128.128 35.5339C128.177 35.4479 128.203 35.3505 128.203 35.2512C128.203 35.152 128.177 35.0545 128.128 34.9686L122.9 25.9146C122.851 25.8286 122.779 25.7572 122.693 25.7076C122.607 25.658 122.51 25.632 122.41 25.632V25.632Z" fill="#E93325"/>
<path d="M120.293 40.3326L124.952 48.4014C125.002 48.4872 125.073 48.5585 125.159 48.6081C125.245 48.6577 125.342 48.6838 125.441 48.684H134.76C134.859 48.684 134.957 48.6579 135.043 48.6083C135.129 48.5587 135.2 48.4874 135.25 48.4015C135.299 48.3155 135.325 48.2181 135.325 48.1188C135.325 48.0196 135.299 47.9221 135.25 47.8362L130.59 39.7668C130.54 39.6809 130.469 39.6095 130.383 39.5599C130.297 39.5103 130.2 39.4842 130.1 39.4842H120.783C120.684 39.4841 120.586 39.5102 120.5 39.5599C120.414 39.6095 120.343 39.6809 120.293 39.7669C120.243 39.8529 120.217 39.9505 120.217 40.0498C120.217 40.1491 120.244 40.2467 120.293 40.3326V40.3326Z" fill="#0B619A"/>
<path d="M153.1 25.9146L147.872 34.9686C147.823 35.0545 147.797 35.152 147.797 35.2512C147.797 35.3505 147.823 35.4479 147.872 35.5339C147.922 35.6198 147.993 35.6911 148.079 35.7407C148.165 35.7903 148.263 35.8164 148.362 35.8164H158.82C158.919 35.8166 159.017 35.7905 159.103 35.7409C159.189 35.6913 159.26 35.6198 159.31 35.5338L164.537 26.4798C164.586 26.3939 164.613 26.2964 164.613 26.1972C164.613 26.098 164.586 26.0005 164.537 25.9146C164.487 25.8286 164.416 25.7573 164.33 25.7077C164.244 25.6581 164.146 25.632 164.047 25.632H153.59C153.49 25.632 153.393 25.658 153.307 25.7076C153.221 25.7572 153.149 25.8286 153.1 25.9146V25.9146Z" fill="#E93325"/>
<path d="M151.048 48.4014L155.707 40.3326C155.756 40.2469 155.782 40.1496 155.783 40.0506C155.783 39.9515 155.757 39.8541 155.708 39.7682C155.658 39.6823 155.587 39.6108 155.502 39.561C155.416 39.5111 155.319 39.4847 155.22 39.4842H145.9C145.8 39.4842 145.703 39.5103 145.617 39.5599C145.531 39.6095 145.46 39.6809 145.41 39.7668L140.751 47.8362C140.701 47.9221 140.675 48.0195 140.675 48.1187C140.675 48.2179 140.701 48.3153 140.751 48.4012C140.8 48.4871 140.872 48.5585 140.958 48.6081C141.043 48.6577 141.141 48.6839 141.24 48.684H150.558C150.657 48.6838 150.755 48.6577 150.841 48.6081C150.926 48.5585 150.998 48.4872 151.048 48.4014" fill="#0B619A"/>
</svg>
